# xmcd
#
# Track frame offsets:
#	150
#	14692
#	29587
#	47180
#	63447
#	74712
#	90320
#	105465
#	117860
#	134190
#	155930
#
# Disc length: 2298 seconds
# Revision: 0
# Processed by: cddbd v1.5.2PL0 Copyright (c) Steve Scherf et al.
# Submitted via: dBpowerAMP V12.0
#
DISCID=a608f80b
DTITLE=Various Artist - A Country Christmas 1999
DYEAR=1999
DGENRE=Christmas
TTITLE0=I'll Be Home For Christmas (Martina McBride)
TTITLE1=Christmas Cookies (George Strait)
TTITLE2=New Star Shining (Mark Wills)
TTITLE3=What Child Is This? (Alecia Elliott)
TTITLE4=Let It Snow, Let It Snow, Let It Snow (Chely Wright)
TTITLE5=Just Put A Ribbon In Your Hair (Kenney Chesney)
TTITLE6=Santa Baby (Mindy McCready)
TTITLE7=New Year's Eve 1999 (Alabama)
TTITLE8=The First Noel (Rebecca Lynn Howard)
TTITLE9=O Come All Ye Faithful (Sara Evans)
TTITLE10=This Is My Prayer For You (Reba McEntire)
EXTD=
EXTT0=
EXTT1=
EXTT2=
EXTT3=
EXTT4=
EXTT5=
EXTT6=
EXTT7=
EXTT8=
EXTT9=
EXTT10=
PLAYORDER=
